<svg xmlns="http://www.w3.org/2000/svg" viewBox="0 0 100 100" role="img" aria-label="Vascular Vix">
<circle cx="19.23" cy="34.62" r="0.43" fill="#ffffff"/>
<circle cx="19.23" cy="42.31" r="0.58" fill="#ffffff"/>
<circle cx="19.23" cy="50.00" r="0.64" fill="#ffffff"/>
<circle cx="19.23" cy="57.69" r="0.58" fill="#ffffff"/>
<circle cx="19.23" cy="65.38" r="0.43" fill="#ffffff"/>
<circle cx="26.92" cy="26.92" r="0.53" fill="#ffffff"/>
<circle cx="26.92" cy="34.62" r="0.85" fill="#ffffff"/>
<circle cx="26.92" cy="42.31" r="1.10" fill="#ffffff"/>
<circle cx="26.92" cy="50.00" r="1.20" fill="#ffffff"/>
<circle cx="26.92" cy="57.69" r="1.10" fill="#ffffff"/>
<circle cx="26.92" cy="65.38" r="0.85" fill="#ffffff"/>
<circle cx="26.92" cy="73.08" r="0.53" fill="#ffffff"/>
<circle cx="34.62" cy="19.23" r="0.43" fill="#ffffff"/>
<circle cx="34.62" cy="26.92" r="0.85" fill="#ffffff"/>
<circle cx="34.62" cy="34.62" r="1.31" fill="#ffffff"/>
<circle cx="34.62" cy="42.31" r="1.70" fill="#ffffff"/>
<circle cx="34.62" cy="50.00" r="1.87" fill="#ffffff"/>
<circle cx="34.62" cy="57.69" r="1.70" fill="#ffffff"/>
<circle cx="34.62" cy="65.38" r="1.31" fill="#ffffff"/>
<circle cx="34.62" cy="73.08" r="0.85" fill="#ffffff"/>
<circle cx="34.62" cy="80.77" r="0.43" fill="#ffffff"/>
<circle cx="42.31" cy="19.23" r="0.58" fill="#ffffff"/>
<circle cx="42.31" cy="26.92" r="1.10" fill="#ffffff"/>
<circle cx="42.31" cy="34.62" r="1.70" fill="#ffffff"/>
<circle cx="42.31" cy="42.31" r="2.32" fill="#ffffff"/>
<circle cx="42.31" cy="50.00" r="2.66" fill="#ffffff"/>
<circle cx="42.31" cy="57.69" r="2.32" fill="#ffffff"/>
<circle cx="42.31" cy="65.38" r="1.70" fill="#ffffff"/>
<circle cx="42.31" cy="73.08" r="1.10" fill="#ffffff"/>
<circle cx="42.31" cy="80.77" r="0.58" fill="#ffffff"/>
<circle cx="50.00" cy="19.23" r="0.64" fill="#ffffff"/>
<circle cx="50.00" cy="26.92" r="1.20" fill="#ffffff"/>
<circle cx="50.00" cy="34.62" r="1.87" fill="#ffffff"/>
<circle cx="50.00" cy="42.31" r="2.66" fill="#ffffff"/>
<circle cx="50.00" cy="50.00" r="3.54" fill="#ffffff"/>
<circle cx="50.00" cy="57.69" r="2.66" fill="#ffffff"/>
<circle cx="50.00" cy="65.38" r="1.87" fill="#ffffff"/>
<circle cx="50.00" cy="73.08" r="1.20" fill="#ffffff"/>
<circle cx="50.00" cy="80.77" r="0.64" fill="#ffffff"/>
<circle cx="57.69" cy="19.23" r="0.58" fill="#ffffff"/>
<circle cx="57.69" cy="26.92" r="1.10" fill="#ffffff"/>
<circle cx="57.69" cy="34.62" r="1.70" fill="#ffffff"/>
<circle cx="57.69" cy="42.31" r="2.32" fill="#ffffff"/>
<circle cx="57.69" cy="50.00" r="2.66" fill="#ffffff"/>
<circle cx="57.69" cy="57.69" r="2.32" fill="#ffffff"/>
<circle cx="57.69" cy="65.38" r="1.70" fill="#ffffff"/>
<circle cx="57.69" cy="73.08" r="1.10" fill="#ffffff"/>
<circle cx="57.69" cy="80.77" r="0.58" fill="#ffffff"/>
<circle cx="65.38" cy="19.23" r="0.43" fill="#ffffff"/>
<circle cx="65.38" cy="26.92" r="0.85" fill="#ffffff"/>
<circle cx="65.38" cy="34.62" r="1.31" fill="#ffffff"/>
<circle cx="65.38" cy="42.31" r="1.70" fill="#ffffff"/>
<circle cx="65.38" cy="50.00" r="1.87" fill="#ffffff"/>
<circle cx="65.38" cy="57.69" r="1.70" fill="#ffffff"/>
<circle cx="65.38" cy="65.38" r="1.31" fill="#ffffff"/>
<circle cx="65.38" cy="73.08" r="0.85" fill="#ffffff"/>
<circle cx="65.38" cy="80.77" r="0.43" fill="#ffffff"/>
<circle cx="73.08" cy="26.92" r="0.53" fill="#ffffff"/>
<circle cx="73.08" cy="34.62" r="0.85" fill="#ffffff"/>
<circle cx="73.08" cy="42.31" r="1.10" fill="#ffffff"/>
<circle cx="73.08" cy="50.00" r="1.20" fill="#ffffff"/>
<circle cx="73.08" cy="57.69" r="1.10" fill="#ffffff"/>
<circle cx="73.08" cy="65.38" r="0.85" fill="#ffffff"/>
<circle cx="73.08" cy="73.08" r="0.53" fill="#ffffff"/>
<circle cx="80.77" cy="34.62" r="0.43" fill="#ffffff"/>
<circle cx="80.77" cy="42.31" r="0.58" fill="#ffffff"/>
<circle cx="80.77" cy="50.00" r="0.64" fill="#ffffff"/>
<circle cx="80.77" cy="57.69" r="0.58" fill="#ffffff"/>
<circle cx="80.77" cy="65.38" r="0.43" fill="#ffffff"/>
</svg>
